<?xml version="1.0" standalone="no"?>
<!DOCTYPE svg PUBLIC "-//W3C//DTD SVG 20010904//EN"
 "http://www.w3.org/TR/2001/REC-SVG-20010904/DTD/svg10.dtd">
<svg version="1.0" xmlns="http://www.w3.org/2000/svg"
 width="300.000000pt" height="65.000000pt" viewBox="0 0 300.000000 65.000000"
 preserveAspectRatio="xMidYMid meet">

<g transform="translate(0.000000,65.000000) scale(0.100000,-0.100000)"
fill="#000000" stroke="none">
<path d="M305 630 c-9 -14 3 -30 23 -29 11 0 12 3 5 6 -20 8 -15 21 10 26 19
4 19 4 -5 6 -15 0 -30 -3 -33 -9z"/>
<path d="M376 616 c6 -16 5 -17 -102 -34 -99 -16 -157 -67 -191 -164 -18 -52
-25 -170 -14 -218 5 -19 9 -28 10 -20 1 8 10 0 22 -19 11 -19 24 -30 27 -25 4
5 27 2 57 -8 28 -9 41 -17 29 -18 -11 0 -29 -9 -39 -20 -21 -23 -11 -27 11 -5
16 16 54 21 54 7 0 -13 47 -32 76 -32 32 0 64 17 64 34 0 8 10 11 30 8 17 -2
30 -8 30 -13 0 -5 5 -9 10 -9 23 0 7 20 -22 29 -30 8 -31 9 -8 11 14 1 33 1
44 0 11 -1 15 3 12 9 -9 14 -4 14 28 1 19 -7 26 -6 26 2 0 6 3 8 7 4 15 -14
38 102 38 189 0 74 -4 98 -22 133 -13 23 -20 42 -16 42 19 0 -87 71 -114 76
-25 5 -32 11 -30 26 1 12 -4 23 -11 25 -7 3 -10 -1 -6 -11z m38 -219 c-1 -64
0 -66 24 -64 16 1 28 11 37 34 8 18 16 33 19 33 2 0 3 -23 3 -50 -2 -36 -6
-49 -14 -45 -19 7 -43 -5 -43 -21 0 -17 17 -18 23 -1 3 9 8 9 16 1 10 -9 10
-22 1 -55 -14 -50 -32 -75 -75 -97 -16 -8 -36 -23 -43 -33 -14 -21 -62 -25
-91 -9 -12 6 -21 26 -25 57 -4 26 -9 62 -12 78 l-5 30 21 -25 c18 -20 20 -21
14 -5 -8 22 -9 41 -6 100 3 37 6 42 50 62 26 12 56 36 67 53 11 16 25 28 30
26 6 -1 10 -33 9 -69z m-204 -116 c0 -14 3 -37 7 -50 6 -23 6 -23 -19 -7 -30
20 -41 52 -27 77 13 25 39 12 39 -20z"/>
<path d="M293 333 c-19 -4 -21 -8 -13 -23 11 -20 37 -21 50 0 5 8 15 10 26 6
12 -5 15 -4 9 2 -14 13 -46 20 -72 15z"/>
</g>
</svg>
