<?xml version="1.0" standalone="no"?>
<!DOCTYPE svg PUBLIC "-//W3C//DTD SVG 20010904//EN"
 "http://www.w3.org/TR/2001/REC-SVG-20010904/DTD/svg10.dtd">
<svg version="1.0" xmlns="http://www.w3.org/2000/svg"
 width="1250.000000pt" height="271.000000pt" viewBox="0 0 1250.000000 271.000000"
 preserveAspectRatio="xMidYMid meet">

<g transform="translate(0.000000,271.000000) scale(0.100000,-0.100000)"
fill="#000000" stroke="none">
<path d="M2091 2619 c-62 -12 -83 -34 -79 -82 3 -46 32 -73 88 -82 36 -6 78
11 52 22 -7 3 -25 16 -40 28 -22 20 -25 27 -16 42 11 18 74 47 128 58 15 3 27
7 25 9 -11 9 -120 13 -158 5z"/>
<path d="M2327 2568 c-2 -7 0 -28 5 -46 5 -19 7 -40 4 -47 -8 -21 -88 -41
-321 -80 -295 -49 -443 -95 -563 -176 -176 -119 -290 -268 -382 -496 -64 -161
-98 -351 -116 -663 -12 -217 38 -522 76 -461 12 21 31 3 90 -84 72 -106 74
-107 182 -110 93 -2 206 -32 296 -79 37 -19 42 -36 9 -36 -63 0 -207 -111
-207 -160 0 -18 3 -19 23 -9 12 6 38 26 57 45 57 54 162 91 218 77 13 -3 28
-19 36 -38 25 -59 213 -135 336 -135 133 0 280 74 280 141 0 34 44 52 108 46
97 -11 131 -25 154 -63 17 -28 26 -34 54 -34 47 0 54 23 19 60 -30 31 -94 62
-168 80 -26 7 -47 16 -47 20 0 11 163 22 228 14 47 -5 60 -3 71 10 12 14 12
21 1 41 -7 14 -10 28 -6 32 4 4 48 -7 99 -25 112 -39 134 -40 147 -7 8 21 14
24 34 19 21 -5 28 0 45 34 41 80 89 323 111 557 13 140 13 424 0 540 -14 121
-32 179 -98 314 -30 63 -56 129 -56 148 -2 44 -36 78 -179 174 -138 93 -270
161 -351 183 -80 20 -106 47 -106 107 0 59 -15 93 -47 108 -30 14 -30 14 -36
-1z m154 -745 c6 -21 15 -142 18 -273 4 -129 11 -243 15 -253 11 -23 47 -31
99 -23 77 13 101 37 164 163 32 64 63 118 69 120 27 9 23 -306 -5 -381 -9 -23
-13 -24 -69 -19 -41 4 -67 1 -88 -10 -63 -33 -88 -88 -56 -127 26 -32 64 -22
86 25 9 19 22 35 27 35 22 0 50 -22 65 -52 20 -39 14 -99 -21 -224 -65 -224
-140 -317 -343 -424 -35 -19 -101 -68 -146 -111 -97 -89 -131 -104 -241 -104
-140 0 -211 39 -254 136 -19 43 -115 598 -106 608 2 2 17 -12 32 -30 62 -75
118 -130 121 -120 2 6 -5 35 -15 63 -15 45 -18 85 -18 263 1 308 5 317 203
419 133 68 240 147 289 213 47 63 129 143 146 143 10 0 21 -15 28 -37z m-920
-664 c30 -32 35 -50 44 -170 4 -41 15 -112 25 -157 21 -97 19 -99 -66 -44
-102 66 -153 146 -154 240 0 64 18 111 55 140 38 30 62 28 96 -9z"/>
<path d="M1930 1263 c-20 -10 -36 -27 -38 -38 -4 -31 38 -88 82 -109 50 -25
99 -11 149 43 46 50 62 55 122 36 27 -8 51 -12 54 -10 10 10 -33 44 -82 66
-72 32 -236 39 -287 12z"/>
<path d="M4895 1895 c-28 -27 -31 -57 -14 -149 22 -114 29 -133 67 -180 34
-42 41 -46 81 -46 62 0 116 18 157 54 45 39 54 95 30 179 -21 71 -64 116 -140
145 -80 30 -149 29 -181 -3z m170 -83 c53 -29 74 -60 82 -122 4 -31 1 -40 -22
-58 -29 -23 -60 -28 -70 -12 -3 6 -17 10 -29 10 -33 0 -46 20 -56 87 -5 32
-12 73 -16 91 -6 31 -6 32 27 32 19 0 56 -13 84 -28z"/>
<path d="M7170 1789 c-80 -16 -221 -38 -315 -49 -93 -11 -190 -23 -214 -26
-85 -11 -120 -86 -65 -141 25 -25 28 -26 122 -20 125 8 322 34 437 57 49 10
91 17 93 15 11 -11 -195 -322 -236 -357 -16 -14 -38 -40 -47 -59 -10 -18 -59
-78 -109 -134 -113 -124 -167 -190 -195 -235 -38 -64 -21 -132 38 -145 42 -9
62 5 128 88 32 39 96 114 142 165 l84 94 26 -34 c37 -47 214 -240 289 -315
102 -102 178 -128 227 -78 47 46 29 91 -60 157 -33 25 -78 67 -100 94 -22 27
-76 87 -120 134 -80 84 -145 162 -145 174 0 3 31 52 69 108 127 192 212 344
225 404 14 65 -42 135 -106 133 -13 0 -88 -14 -168 -30z"/>
<path d="M9454 1780 c-42 -17 -54 -49 -54 -140 0 -47 -4 -90 -8 -97 -5 -8 -65
-12 -189 -15 l-183 -3 -26 -27 c-37 -36 -37 -83 0 -115 26 -22 33 -23 197 -23
159 0 169 -1 169 -19 0 -46 -104 -336 -147 -411 -15 -24 -63 -82 -108 -130
-45 -47 -85 -95 -89 -107 -8 -26 16 -78 39 -87 9 -3 32 -6 51 -6 28 0 46 11
105 68 40 37 94 98 120 135 66 94 165 353 203 530 l6 27 190 0 190 0 0 -280 0
-280 -27 -12 c-16 -6 -98 -14 -183 -18 -85 -4 -163 -10 -173 -15 -20 -8 -47
-55 -47 -80 0 -9 13 -30 29 -46 29 -29 30 -29 148 -29 232 1 353 34 397 110
20 33 21 53 24 344 l3 309 30 28 c37 35 39 80 4 114 l-24 25 -268 0 -268 0 0
101 0 101 -33 29 c-34 31 -44 33 -78 19z"/>
<path d="M4153 1756 l-28 -24 -7 -279 c-9 -348 -9 -295 0 -526 l7 -199 31 -28
c58 -51 242 -83 579 -101 242 -12 422 0 474 32 51 31 54 103 6 135 -22 15 -39
15 -158 4 -203 -19 -648 10 -751 50 l-26 10 0 144 0 145 46 32 c51 35 285 148
414 199 104 42 143 74 143 120 0 39 -40 80 -78 80 -33 0 -187 -62 -369 -149
-81 -39 -150 -71 -152 -71 -2 0 -4 87 -4 194 0 107 -3 202 -6 211 -7 17 -54
45 -78 45 -8 0 -28 -11 -43 -24z"/>
<path d="M7685 1745 c-27 -26 -32 -63 -14 -97 24 -46 50 -48 520 -48 l441 0
-49 -57 c-84 -98 -96 -127 -77 -178 10 -24 60 -46 90 -39 27 7 203 195 254
273 39 57 40 111 5 146 l-24 25 -561 0 -561 0 -24 -25z"/>
<path d="M11090 1693 c-33 -12 -55 -44 -121 -175 -38 -76 -71 -138 -73 -138
-2 0 -46 20 -98 45 -96 46 -250 95 -298 95 -34 0 -76 -32 -84 -65 -9 -34 16
-80 51 -93 15 -5 69 -22 118 -37 86 -26 215 -82 215 -95 0 -18 -197 -263 -243
-303 -67 -57 -174 -121 -238 -142 -57 -19 -80 -43 -81 -86 -2 -46 39 -79 96
-79 54 0 192 69 294 147 81 62 144 132 253 282 l73 101 57 -55 c31 -30 69 -57
83 -61 56 -14 113 40 101 94 -4 19 -33 56 -77 98 l-71 68 68 136 c37 74 71
147 75 161 18 61 -43 123 -100 102z"/>
<path d="M8216 1458 c-21 -19 -30 -46 -52 -148 -47 -227 -163 -403 -337 -514
-65 -42 -87 -69 -87 -109 0 -36 40 -77 76 -77 42 0 144 63 226 139 143 134
241 307 283 503 32 150 32 163 -4 199 -35 35 -71 37 -105 7z"/>
<path d="M6195 1403 c-339 -15 -764 -56 -923 -89 -84 -17 -82 -139 2 -160 14
-3 71 1 128 10 237 36 883 86 908 71 4 -2 50 -5 103 -7 89 -2 98 0 122 22 33
31 34 82 1 114 -19 20 -37 25 -112 30 -49 4 -105 8 -124 10 -19 1 -66 1 -105
-1z"/>
</g>
</svg>
